<svg xmlns="http://www.w3.org/2000/svg" width="512" height="512" id="bull">
  <path d="M122.836 265.441L120.105 226.713C109.746 231.655 107.744 232.838 95.1428 232.83C61.4419 232.81 35.7105 207.781 20.875 179.358C14.274 166.712 15.7788 161.324 30.3711 161.091L40.761 160.747C48.6507 160.213 56.6126 158.779 64.4756 157.814C60.5 155.56 57.0373 152.462 53.7578 149.307C28.2448 124.76 10.6067 85.1361 18.0037 49.375C20.3501 38.0312 26.3369 26.6662 36.2442 20.2095C46.5256 13.5092 59.3575 16.4782 56.6794 30.9364L55.9304 36.2971C52.8305 67.1185 75.7284 95.413 102.883 107.087C108.42 109.467 115.263 111.351 121.199 112.543C125.145 113.336 128.721 112.364 133.171 113.359C149.604 117.031 155.661 113.354 168.22 105.443C182.602 96.3838 196.909 97.0621 213.013 97.0624L312.967 97.0752C329.768 97.1425 339.776 102.611 353.872 111.126C357.016 113.024 358.81 113.129 362.365 113.131L383.555 113.02C390.527 112.961 396.767 111.949 403.412 109.593C434.123 98.7034 459.689 69.0556 456.141 35.3419C455.241 26.7804 451.836 18.6192 464.697 16.8344L464.985 16.8442C471.875 17.1292 478.633 21.29 483.221 26.2542C497.084 41.2538 497.002 65.6331 493.486 84.7455C488.546 111.605 474.271 134.927 454.602 153.472L450.677 156.842C450.073 157.407 449.435 157.866 448.762 158.343C457.328 158.387 465.836 160.193 474.369 160.846C479.887 161.268 487.14 159.413 491.725 163.131C498.351 168.505 491.829 178.588 488.53 184.017C474.353 207.35 452.614 230.613 423.839 232.715C414.314 233.41 404.205 233.199 395.429 229.114C394.33 228.602 393.049 228.375 392.137 227.541L391.449 244.358C388.432 289.703 373.242 333.063 351.101 372.503L342.186 387.698C339.61 392.005 337.117 396.335 334.148 400.39L335.887 406.532C340.903 434.757 319.288 447.353 294.664 452.251L283.559 453.942C276.811 455.13 269.458 454.797 262.618 454.808L239.139 454.737C218.495 453.804 189.033 448.921 178.83 429.178C175.825 423.363 174.291 412.608 176.406 406.076L178.315 400.568C176.373 398.191 174.793 395.439 173.225 392.801L166.512 381.368C158.516 367.909 151.076 354.196 144.731 339.867L137.888 322.502C131.012 303.994 125.707 284.996 122.836 265.441ZM472.634 38.4819C472.562 41.9861 472.718 45.6096 472.389 49.0964C468.82 86.9349 437.52 117.551 401.716 126.878C398.75 127.651 395.56 128.551 392.521 128.882L402.243 158.447L402.841 160.67L414.824 157.692C424.15 155.748 425.105 155.237 432.967 149.591C447.154 139.402 458.586 127.307 466.882 111.84C477.082 92.8241 486.501 57.9251 472.634 38.4819ZM39.4477 39.375C29.0563 51.7055 32.2762 75.8677 36.1555 89.817C44.1579 118.593 62.9407 140.731 89.0127 154.509C97.8632 159.186 100.619 157.805 109.091 160.513L109.766 158.297L119.027 128.773C77.6473 122.336 40.6344 86.4888 39.7532 43.3538C39.7394 42.6802 39.8768 39.6296 39.4477 39.375ZM290.842 113.084L206.587 113.09C195.035 113.091 187.331 113.933 176.498 119.125C172.876 120.861 169.817 123.432 166.344 125.406C157.453 130.458 146.12 130.618 136.158 129.512L123.565 168.543C132.065 174.753 136.768 186.851 135.091 197.25C133.989 204.086 135.419 210.758 135.493 217.631L135.571 231.206C135.621 233.983 136.021 236.772 136.254 239.542L137.234 251.179C141.749 291.606 155.501 329.162 175.131 364.495L182.863 377.836C183.934 379.688 184.851 381.839 186.08 383.559C193.394 372.185 210.054 362.187 224.113 363.84L243.925 367.33C254.418 368.675 265.817 367.65 276.155 365.658C281.782 364.574 287.471 362.905 293.25 363.319C304.412 364.118 316.921 371.84 323.665 380.551L325.94 383.739L342.177 354.808C361.744 317.747 371.739 283.856 375.257 242.546C375.67 237.694 376.358 232.918 376.453 228.041L376.421 212.625C376.538 207.24 376.941 203.472 376.641 198C375.993 186.183 378.877 176.542 388.054 168.445C385.141 154.985 378.206 142.041 375.623 129.647C363.966 129.795 352.979 130.541 342.964 123.571C329.178 113.976 322.478 113.091 305.558 113.065C300.693 113.057 295.692 112.818 290.842 113.084ZM428.186 172.615C418.021 172.432 405.024 175.48 397.383 182.549C390.416 188.996 389.957 203.543 396.652 210.321C405.86 219.643 424.388 217.565 435.678 213.517C453.305 206.155 463.443 191.55 474.398 176.813L428.186 172.615ZM83.049 172.791L37.5926 176.769C48.4805 192.02 59.854 207.106 77.9357 214.131C86.1695 216.94 101.117 218.526 109.253 214.509C119.84 209.282 123.626 193.447 116.611 184.353C111.495 177.721 101.767 175.193 94.0462 173.359C92.043 172.883 83.8793 173.265 83.049 172.791ZM220.392 379.823C212.945 381.018 203.994 385.701 199.604 391.99C197.574 394.897 197.097 398.884 195.785 402.153C194.503 405.347 192.339 408.39 191.451 411.703C187.66 425.855 207.869 433.652 218.375 436.009C236.458 440.067 274.144 440.469 292.463 436.452C303.959 433.666 324.045 427.003 320.062 411.492C319.304 408.54 314.897 397.969 313.392 394.749C310.06 387.626 300.614 380.626 292.571 380.016C289.203 379.761 285.75 380.401 282.441 380.979L271.625 382.736C258.261 384.559 245.4 384.05 232.214 381.511C228.384 380.773 224.318 379.548 220.392 379.823Z"></path>
  <path d="M207.934 272.362C198.783 274.931 197.772 264.053 193.787 257.182 185.655 243.165 174.442 230.719 159.87 223.262 155.807 221.182 151.533 219.904 147.387 218.078 139.367 214.546 136.157 204.491 145.354 201.551L145.58 201.522C155.305 200.394 174.751 212.185 182.125 218.077 193.898 227.483 203.188 239.672 209.498 253.315 210.951 256.456 215.537 265.989 212.62 269.317L212.375 269.578C211.058 271.007 209.705 271.675 207.934 272.362zM308.245 273.129C297.369 274.21 298.162 263.391 301.329 255.869 310.847 233.264 338.038 205.671 363.406 201.58 370.364 201.153 374.507 206.813 371.246 213.5 369.15 217.799 363.501 218.873 359.426 220.342 341.002 226.983 327.211 240.902 318.101 257.98 315.317 263.2 314.407 270.916 308.245 273.129z"></path>
  <path d="M182.693 278.024C178.153 278.637 173.729 276.517 169.83 274.387 155.703 266.67 146.168 254.721 141.694 239.23 139.7 232.326 139.354 225.572 147.436 223.286 154.557 222.708 155.56 228.539 157.493 234.272L159.782 240.396C168.903 261.794 186.066 259.255 189.187 267.559 191.091 272.627 187.27 276.553 182.693 278.024zM332.744 278.001C326.566 278.755 320.42 274.181 323.038 267.345 325.98 259.665 344.168 261.431 353.804 237.534L357.109 228.34C358.16 225.7 359.493 224.401 362.05 223.296 381.615 222.68 366.385 250.085 361.532 257.383 355.315 266.733 343.897 275.732 332.744 278.001zM320.075 359.622L318.788 359.197C314.734 357.721 311.221 354.256 307.972 351.496 293.459 339.168 281.931 327.074 289.777 306.375 291.914 300.736 296.088 292.879 301.805 290.264L302.834 290.253C304.755 290.349 306.461 291.665 307.686 293.061 312.795 298.885 308.904 303.575 306.125 309.171 296.782 327.984 315.408 334.134 325.321 345.435 329.596 350.309 327.465 360.247 320.075 359.622zM193.551 359.428L192.703 359.651C191.121 359.922 189.687 359.639 188.375 358.689 180.221 352.781 186.535 345.374 191.748 340.89 202.955 331.251 213.464 324.331 205.362 308.481 202.055 302.013 199.234 292.364 209.359 291.085L209.621 291.111C215.034 291.592 217.408 295.99 219.633 300.511 225.703 312.842 226.604 327.676 217.644 338.813 215.152 341.912 197.302 357.582 193.551 359.428zM277.7 425.235C275.674 425.461 273.869 425.408 272.125 424.248 262.566 417.886 271.637 407.778 281.255 406.598 293.685 407.1 293.904 421.254 277.7 425.235zM237.934 424.752C225.332 426.308 214.206 411.415 228.152 406.77 240.112 406.122 251.427 420.734 237.934 424.752z"></path>
</svg>