<svg xmlns="http://www.w3.org/2000/svg" enable-background="new 0 0 66 66" viewBox="0 0 66 66" id="eagle-tattoo">
  <path d="M54.6,17.2c-0.1-4.2-3.1-6.5-5.1-7.3c-1.3-4.9-8.4-8.7-8.8-8.9c-0.4-0.2-0.8-0.1-1.1,0.2S39.1,2,39.3,2.4
		c4.6,9.5,8.6,23.6-0.9,28.2c0.1-2-0.4-3.7-1.5-4.9c-2.4-2.9-7.7-3.2-11.3-2.5c-0.4,0.1-0.7,0.4-0.8,0.9c0,0.4,0.2,0.8,0.6,1
		c2.9,1.1,4.1,3.1,2.7,5.9C27,30.4,24.5,29.1,23,26c-2.5-5.2-1.3-13.4,3.7-23.6c0.2-0.4,0.1-0.8-0.2-1.1s-0.8-0.4-1.1-0.2
		c-0.3,0.2-7.5,4-8.8,8.9c-2,0.8-5.1,3-5.1,7.3c-0.6,1.1-2.6,5.4-0.9,8.7c-0.3,1.4-1,5.4,0.9,7.6c-1.3,3.2-0.4,6.4,3.1,8.4
		c1.2,3.9,5.2,6.7,12.2,5.5c-0.3,1.6-1.1,4.2-3.5,5.6c-0.3,0.2-0.5,0.6-0.5,1c0,0.4,0.3,0.7,0.7,0.8c1.2,0.3,2.8,0.5,4.1,0.1
		C27.8,61.4,31.8,65,33,65c0.1,0,0.3,0,0.6-0.2c4-2.7,4.8-7.4,4.9-10c1.2,0.3,2.8,0.2,4.1-0.1c0.8-0.2,1-1.3,0.2-1.8
		c-2.4-1.4-3.2-4-3.5-5.6c7,1.2,11-1.6,12.2-5.5c3.6-2,4.5-5.2,3.1-8.4c1.9-2.1,1.2-6.2,0.9-7.6C57.2,22.7,55.1,18.3,54.6,17.2z
		 M53.4,26.1c0.3,1.3,1,5.3-0.6,6.4c-1.3,0.9,1,2.2,0.2,4.9c-0.7,2.5-3.2,2.6-3.4,3.7c-0.6,3.1-4.2,5.9-11.3,4.2
		c-0.3-0.1-0.6,0-0.8,0.2c-0.2,0.2-0.4,0.5-0.4,0.8c0,0.2,0.1,4.1,2.7,6.9c-0.6,0-1.3-0.2-1.7-0.6c-0.3-0.3-0.7-0.4-1.1-0.2
		c-0.4,0.2-0.6,0.6-0.5,1c0,0.1,0.6,6.2-3.5,9.5c-4.1-3.3-3.5-9.5-3.5-9.5c0.1-0.9-1-1.4-1.7-0.8c-0.4,0.4-1.1,0.6-1.7,0.6
		c2.6-2.8,2.7-6.7,2.7-6.9c0-0.3-0.1-0.6-0.4-0.8c-0.2-0.2-0.5-0.3-0.8-0.2C20.5,46.9,17,44.1,16.4,41c-0.2-1-2.7-1.2-3.4-3.7
		c-0.8-2.7,1.5-4,0.2-4.9c-1.6-1.1-1-5.1-0.6-6.4c0.1-0.3,0-0.5-0.1-0.8c-1.9-2.9,1-7.2,1-7.8c0-4.5,4.1-5.8,4.3-5.8
		c1.6-0.4-0.7-2.4,5.9-7.1c-4.1,9.5-4.9,17-2.3,22.3c2.4,5.1,7,6.1,7.2,6.2c0.4,0.1,0.8-0.1,1-0.4c1.7-2.4,1.8-5.7-0.5-7.8
		c2.1,0,5.1,0.3,6.6,2.1c1,1.1,1.2,2.8,0.9,5c-0.1,0.7,0.5,1.3,1.2,1.1c0.2,0,4.7-1.1,7.2-6.2c2.6-5.3,1.8-12.8-2.3-22.3
		c6.5,4.7,4.3,6.7,5.9,7.1c0,0,4.4,1.3,4.3,5.8c0,0.6,2.8,4.9,1,7.8C53.4,25.5,53.4,25.8,53.4,26.1z"></path>
  <path d="M33.4,27.9c-0.8,0-1.5,0.7-1.5,1.5c0,0.8,0.7,1.5,1.5,1.5s1.5-0.7,1.5-1.5C34.9,28.5,34.2,27.9,33.4,27.9z M33.4,29.8
		c-0.3,0-0.5-0.2-0.5-0.5c0-0.3,0.2-0.5,0.5-0.5s0.5,0.2,0.5,0.5C33.9,29.6,33.7,29.8,33.4,29.8z"></path>
</svg>