<svg xmlns="http://www.w3.org/2000/svg" enable-background="new 0 0 128 128" viewBox="0 0 128 128" id="fist">
  <g id="Fist">
    <g>
      <path d="M102.984,106.823c-0.075-0.413-0.399-0.736-0.813-0.808l-21.852-3.8l-0.135-4.306c-0.018-0.552-0.466-1.006-1.031-0.968
			c-0.552,0.017-0.985,0.479-0.968,1.031L79,124.031C79.018,124.573,79.461,125,80,125c0.01,0,0.021,0,0.032,0
			c0.552-0.017,0.985-0.479,0.968-1.031l-0.038-1.226l14.825,3.234C95.858,125.993,95.929,126,96,126c0.311,0,0.609-0.145,0.8-0.4
			c0.235-0.313,0.265-0.735,0.078-1.079l-5.535-10.147l11.161-6.51C102.867,107.652,103.059,107.236,102.984,106.823z
			 M89.496,113.136c-0.467,0.272-0.633,0.868-0.374,1.343l4.951,9.077l-13.176-2.875l-0.513-16.425l18.747,3.26L89.496,113.136z"></path>
      <path d="M89.312,88.95C89.722,88.816,90,88.432,90,88V64c0-0.379-0.214-0.725-0.553-0.895l-8.988-4.494l14.816-17.78
			c2.405-2.885,3.443-6.667,2.85-10.376l-2.061-12.876C95.363,13.187,91.625,10,87.178,10H87c0-3.86-3.14-7-7-7
			c-2.548,0-4.775,1.373-6,3.413C72.775,4.373,70.548,3,68,3c-3.287,0-6.044,2.28-6.792,5.339C59.925,6.907,58.069,6,56,6
			c-2.849,0-5.302,1.714-6.393,4.162C48.505,8.842,46.85,8,45,8h-2.255c-2.062,0-3.954,1.039-5.062,2.779l-2.384,3.746
			c-2.146,3.372-3.116,7.42-2.73,11.398l1.2,12.398l-17.384-7.243c-0.386-0.163-0.831-0.064-1.116,0.241
			c-0.285,0.305-0.35,0.756-0.164,1.129l5.507,11.015L8.641,48.067C8.261,48.213,8.008,48.574,8,48.981
			c-0.007,0.407,0.232,0.778,0.606,0.938l31.995,13.712c0.208,1.272,0.316,2.564,0.295,3.865l-0.205,12.931L30.66,84.06
			C30.264,84.203,30,84.579,30,85v22c0,0.351,0.184,0.677,0.485,0.857l9.678,5.807L40,123.984c-0.009,0.552,0.432,1.007,0.984,1.016
			c0.006,0,0.011,0,0.017,0c0.545,0,0.991-0.438,1-0.984l0.305-19.192c0.003-0.16-0.041-0.306-0.105-0.441L89.312,88.95z M80,5
			c2.757,0,5,2.243,5,5h-8.5c-0.514,0-1.015,0.052-1.5,0.151V10C75,7.243,77.243,5,80,5z M63,10c0-2.757,2.243-5,5-5s5,2.243,5,5
			v0.872c-2.376,1.26-4,3.757-4,6.628c0,2.867,1.618,5.36,3.988,6.622C72.921,26.822,70.715,29,68,29c-2.757,0-5-2.243-5-5v-1V13V10
			z M51,13c0-2.757,2.243-5,5-5s5,2.243,5,5v10c0,2.757-2.243,5-5,5s-5-2.243-5-5v-9V13z M11.655,49.05l10.704-4.117
			c0.263-0.101,0.472-0.309,0.573-0.571c0.102-0.263,0.088-0.557-0.038-0.809l-4.798-9.596l15.89,6.621l0.522,5.394
			c0.339,3.5,1.474,6.943,3.283,9.958c1,1.667,1.759,3.45,2.281,5.3L11.655,49.05z M39.506,54.9
			c-1.657-2.761-2.697-5.915-3.007-9.121l-1.94-20.049c-0.342-3.536,0.52-7.134,2.427-10.132l2.384-3.746
			c0.738-1.16,2-1.853,3.375-1.853H45c2.206,0,4,1.794,4,4v9c0,2.206-1.794,4-4,4s-4-1.794-4-4v-1c0-0.552-0.448-1-1-1s-1,0.448-1,1
			v1c0,3.309,2.691,6,6,6c2.029,0,3.823-1.015,4.91-2.562C51.113,28.562,53.39,30,56,30c2.354,0,4.436-1.172,5.705-2.958
			C62.84,29.38,65.231,31,68,31c3.577,0,6.53-2.698,6.945-6.164C75.447,24.942,75.967,25,76.5,25h6.653l0.728,4.364l-11.07,4.332
			C65.636,36.503,61,43.296,61,51c0,0.552,0.448,1,1,1s1-0.448,1-1c0-6.875,4.137-12.936,10.539-15.441l11.825-4.627
			c0.44-0.172,0.7-0.629,0.622-1.096l-1-6C84.906,23.354,84.489,23,84,23h-7.5c-3.033,0-5.5-2.467-5.5-5.5s2.467-5.5,5.5-5.5h10.678
			c3.459,0,6.366,2.479,6.912,5.894l2.061,12.876c0.502,3.139-0.377,6.339-2.412,8.78L78.691,57.609
			c-1.098,1.316-1.673,2.986-1.619,4.7l0.15,4.806c0.001,0.028,0.015,0.052,0.018,0.08L42.703,79.699l0.193-12.17
			C42.967,63.082,41.795,58.714,39.506,54.9z M40.201,111.354L32,106.434V85.702l50.688-18.353c0.52-0.188,0.788-0.762,0.6-1.281
			c-0.188-0.52-0.762-0.786-1.281-0.6l-2.804,1.015l-0.132-4.237c-0.021-0.665,0.102-1.316,0.333-1.926L88,64.618v22.657
			l-52.01,17.038c-0.524,0.172-0.811,0.737-0.639,1.262c0.138,0.421,0.529,0.689,0.95,0.689c0.103,0,0.208-0.016,0.312-0.05
			l3.688-1.208L40.201,111.354z"></path>
    </g>
  </g>
</svg>