<svg xmlns="http://www.w3.org/2000/svg" enable-background="new 0 0 512 512" viewBox="0 0 512 512" id="tiger">
  <path fill="none" stroke="#000" stroke-linecap="round" stroke-linejoin="round" stroke-miterlimit="10" stroke-width="3" d="
		M165.002,412.563c-11.778-30.22,4.133-62.232,4.123-62.242"></path>
  <line x1="204.058" x2="211.412" y1="342.051" y2="379.745" fill="none" stroke="#000" stroke-linecap="round" stroke-linejoin="round" stroke-miterlimit="10" stroke-width="6"></line>
  <path fill="none" stroke="#000" stroke-linecap="round" stroke-linejoin="round" stroke-miterlimit="10" stroke-width="6" d="M155.447 219.777c0 0 48.381-13.675 51.254 32.063v15.514V251.84C206.701 251.839 170.386 275.973 155.447 219.777zM177.631 137.377c27.228-44.13 78.373-47.572 78.373-47.572M196.933 96.009c0 0-34.476 14.825-43.44 51.024 0 0-3.103 24.478-21.72 29.649"></path>
  <path fill="none" stroke="#000" stroke-linecap="round" stroke-linejoin="round" stroke-miterlimit="10" stroke-width="6" d="
		M153.493,147.033c0,0-3.448,35.855-9.653,53.438c-6.206,17.583-24.478,32.752-12.067,71.365s45.853,23.099,45.853,23.099"></path>
  <path fill="none" stroke="#000" stroke-linecap="round" stroke-linejoin="round" stroke-miterlimit="10" stroke-width="6" d="M119.017 179.44c0 0-18.617 55.506-7.585 104.462 0 0 5.861 18.272 28.96 24.478M111.432 283.902c0 0-6.206 57.919 46.542 81.363M256.004 429.395c0-.02 0-.04 0-.06M342.883 350.271c0 0 15.961 31.912 4.253 62.102"></path>
  <line x1="307.945" x2="300.59" y1="341.996" y2="379.69" fill="none" stroke="#000" stroke-linecap="round" stroke-linejoin="round" stroke-miterlimit="10" stroke-width="6"></line>
  <path fill="none" stroke="#000" stroke-linecap="round" stroke-linejoin="round" stroke-miterlimit="10" stroke-width="6" d="M356.556 219.722c0 0-48.381-13.675-51.254 32.063v15.514-15.514C305.302 251.784 341.616 275.918 356.556 219.722zM256.004 89.744c0 0 51.135 3.452 78.373 47.582M315.07 95.953c0 0 34.476 14.825 43.44 51.024 0 0 3.103 24.478 21.72 29.649"></path>
  <path fill="none" stroke="#000" stroke-linecap="round" stroke-linejoin="round" stroke-miterlimit="10" stroke-width="6" d="
		M358.509,146.978c0,0,3.448,35.855,9.653,53.438c6.206,17.583,24.478,32.752,12.067,71.365s-45.853,23.099-45.853,23.099"></path>
  <path fill="none" stroke="#000" stroke-linecap="round" stroke-linejoin="round" stroke-miterlimit="10" stroke-width="6" d="M392.985 179.385c0 0 18.617 55.506 7.585 104.462 0 0-5.861 18.272-28.96 24.478M400.57 283.847c0 0 6.206 57.919-46.542 81.363"></path>
  <path fill="none" stroke="#000" stroke-linecap="round" stroke-linejoin="round" stroke-miterlimit="10" stroke-width="6" d="
		M491.914,307.982c0,0-13.889-17.932-19.403-8.736c0,0,21.144,25.737,10.107,56.078c0,0-20.224-24.356-23.436-18.843
		c0,0,11.028,22.986,7.815,42.749c0,0-17.932-10.117-25.287-8.736c0,0,2.302,27.118-8.276,32.642
		c-10.567,5.514-19.303-16.091-21.144-16.091s-0.921,28.96-10.567,32.172c-9.657,3.222-12.418-10.567-16.551-8.726
		c-4.143,1.831-5.544,13.789-10.587,13.789s-25.727-13.789-25.727-13.789l-1.721,1.881c-4.753,12.268-14.08,24.246-30.881,33.683
		c-4.633,2.602-9.827,5.013-15.661,7.185c0,0-44.53,5.964-44.59-23.846c0,29.87-44.59,23.896-44.59,23.896
		c-5.834-2.172-11.037-4.583-15.671-7.185c-16.701-9.396-25.988-21.324-30.741-33.543l-1.851-2.021c0,0-20.694,13.789-25.737,13.789
		s-6.444-11.948-10.577-13.789c-4.143-1.841-6.905,11.948-16.551,8.736c-9.657-3.222-8.736-32.182-10.577-32.182
		c-1.831,0-10.567,21.605-21.144,16.091c-10.567-5.514-8.276-32.632-8.276-32.632c-7.355-1.381-25.277,8.726-25.277,8.726
		c-3.222-19.763,7.815-42.749,7.815-42.749c-3.222-5.514-23.446,18.853-23.446,18.853c-11.038-30.341,10.117-56.088,10.117-56.088
		c-5.524-9.186-19.413,8.736-19.413,8.736c-7.145-33.943,18.533-64.083,20.654-66.505l-20.554,21.455
		c-1.811-25.808,21.354-51.165,22.045-51.915L26.16,223.455c1.361-25.347,21.425-39.987,22.055-40.437l-11.478,4.583
		c17.012-44.13,49.183-45.971,49.183-45.971c-14.25-14.25-9.657-45.961-9.657-45.961c-39.987-32.182-6.434-73.55-6.434-73.55
		c43.67-19.773,85.508,39.066,85.508,39.066c51.025-28.499,100.668-29.42,100.668-29.42v-0.05c0,0,49.644,0.921,100.668,29.42
		c0,0,41.828-58.84,85.498-39.076c0,0,33.553,41.368-6.434,73.55c0,0,4.593,31.722-9.656,45.971c0,0,32.182,1.831,49.193,45.961
		l-11.488-4.583c0.63,0.45,20.694,15.1,22.055,40.437l-16.071-12.388c0.69,0.751,23.856,26.118,22.045,51.925l-20.554-21.455
		C473.381,243.899,499.059,274.039,491.914,307.982z"></path>
  <path fill="none" stroke="#000" stroke-linecap="round" stroke-linejoin="round" stroke-miterlimit="10" stroke-width="6" d="M256.004 494.149v.06c-70.798 4.593-60.261-48.103-60.261-48.103 4.633 2.602 9.837 5.013 15.671 7.185 0 0 44.59 5.974 44.59-23.896.06 29.81 44.59 23.846 44.59 23.846 5.834-2.172 11.027-4.583 15.661-7.185C316.255 446.056 326.792 498.742 256.004 494.149zM256.835 423.911v.42c0 0-.37-.07-1.011-.2C256.114 424.081 256.454 424.001 256.835 423.911z"></path>
  <path fill="none" stroke="#000" stroke-linecap="round" stroke-linejoin="round" stroke-miterlimit="10" stroke-width="6" d="
		M298.373,391.179c0,0-24.827,18.392-26.198,24.367c-1.081,4.653-11.007,7.395-15.34,8.366c-0.38,0.09-0.721,0.17-1.011,0.22
		c-0.28-0.06-0.61-0.13-0.991-0.22c-4.253-0.971-13.929-3.662-15-8.316c-1.381-5.974-26.208-24.356-26.208-24.356
		c5.984-12.869,28.96,3.672,28.96,3.672c5.394-1.431,11.057-0.62,13.279-0.2c1.991-0.4,7.925-1.351,13.549,0.15
		C269.413,394.861,292.399,378.31,298.373,391.179z"></path>
  <path fill="none" stroke="#000" stroke-linecap="round" stroke-linejoin="round" stroke-miterlimit="10" stroke-width="6" d="M255.824 424.131c-.62.14-.991.2-.991.2v-.42C255.213 424.001 255.544 424.071 255.824 424.131zM143.243 75.236c0 0-30.635-39.712-61.837-44.25 0 0-5.106-1.702-6.808 5.106s-15.885 27.231 8.51 48.789"></path>
  <circle cx="197.086" cy="394.925" r=".343" fill="none" stroke="#000" stroke-linecap="round" stroke-linejoin="round" stroke-miterlimit="10" stroke-width="6"></circle>
  <circle cx="201.089" cy="420.943" r=".343" fill="none" stroke="#000" stroke-linecap="round" stroke-linejoin="round" stroke-miterlimit="10" stroke-width="6"></circle>
  <circle cx="178.073" cy="379.915" r=".343" fill="none" stroke="#000" stroke-linecap="round" stroke-linejoin="round" stroke-miterlimit="10" stroke-width="6"></circle>
  <circle cx="187.079" cy="407.934" r=".343" fill="none" stroke="#000" stroke-linecap="round" stroke-linejoin="round" stroke-miterlimit="10" stroke-width="6"></circle>
  <circle cx="328.649" cy="399.48" r=".343" fill="none" stroke="#000" stroke-linecap="round" stroke-linejoin="round" stroke-miterlimit="10" stroke-width="6"></circle>
  <circle cx="313.084" cy="420.708" r=".343" fill="none" stroke="#000" stroke-linecap="round" stroke-linejoin="round" stroke-miterlimit="10" stroke-width="6"></circle>
  <circle cx="325.818" cy="375.424" r=".343" fill="none" stroke="#000" stroke-linecap="round" stroke-linejoin="round" stroke-miterlimit="10" stroke-width="6"></circle>
  <circle cx="312.376" cy="401.604" r=".343" fill="none" stroke="#000" stroke-linecap="round" stroke-linejoin="round" stroke-miterlimit="10" stroke-width="6"></circle>
</svg>