<svg xmlns="http://www.w3.org/2000/svg" enable-background="new 0 0 68 68" viewBox="0 0 68 68" id="PawPrint">
  <path d="M37.33 13.54C38.7 8.72 43 5.7 46.92 6.81c1.94.56 3.48 2.01 4.34 4.1.83 2.01.92 4.38.27 6.67-1.18 4.15-4.52 6.96-7.93 6.96-.55 0-1.11-.08-1.66-.23C38.03 23.19 35.96 18.37 37.33 13.54zM65.6 30.27c-.61 2.14-1.85 3.98-3.5 5.17-1.22.89-2.57 1.35-3.9 1.35-.54 0-1.07-.08-1.59-.23-1.82-.51-3.27-1.88-4.08-3.84-.77-1.88-.86-4.09-.25-6.24 1.28-4.52 5.31-7.34 8.99-6.3 1.82.52 3.27 1.89 4.08 3.85C66.12 25.91 66.21 28.12 65.6 30.27zM16.47 17.58c-.65-2.29-.56-4.66.27-6.67.86-2.09 2.4-3.54 4.34-4.1C25 5.7 29.3 8.72 30.67 13.54c1.37 4.83-.7 9.65-4.61 10.77-.55.15-1.11.23-1.66.23C20.99 24.54 17.65 21.73 16.47 17.58zM57.85 48.63c.84 4.3-.22 8.12-2.92 10.48-1.74 1.53-4 2.31-6.5 2.31-1.43 0-2.95-.26-4.49-.78-3.01-1.01-6.26-1.51-9.94-1.51s-6.93.5-9.94 1.51c-4.24 1.43-8.25.88-10.99-1.53-2.7-2.36-3.76-6.18-2.92-10.48C11.56 41.47 19 34.58 25 30.06c2.58-1.84 5.31-2.84 8.17-3v-.03H34c.01 0 .01 0 .02 0h.38c.23.01.41 0 .44 0v.03c2.96.17 5.77 1.2 8.16 3C49 34.58 56.44 41.47 57.85 48.63zM11.39 36.56c-.52.15-1.05.23-1.59.23-1.33 0-2.68-.46-3.9-1.35-1.65-1.19-2.89-3.03-3.5-5.17-.61-2.15-.52-4.36.25-6.24.81-1.96 2.26-3.33 4.08-3.85 3.68-1.04 7.71 1.78 8.99 6.3.61 2.15.52 4.36-.25 6.24C14.66 34.68 13.21 36.05 11.39 36.56z" fill="#0f3ed3" class="color000000 svgShape"></path>
</svg>